<?xml version="1.0" encoding="UTF-8" standalone="no"?>
<!-- Created with Inkscape (http://www.inkscape.org/) -->

<svg
   xmlns:dc="http://purl.org/dc/elements/1.1/"
   xmlns:cc="http://creativecommons.org/ns#"
   xmlns:rdf="http://www.w3.org/1999/02/22-rdf-syntax-ns#"
   xmlns:svg="http://www.w3.org/2000/svg"
   xmlns="http://www.w3.org/2000/svg"
   xmlns:sodipodi="http://sodipodi.sourceforge.net/DTD/sodipodi-0.dtd"
   xmlns:inkscape="http://www.inkscape.org/namespaces/inkscape"
   width="744.09448819"
   height="1052.3622047"
   id="svg4029"
   version="1.1"
   inkscape:version="0.48.5 r10040"
   sodipodi:docname="drawing.svg"
   inkscape:export-filename="/home/zoran/gittest/ciklogen/ciklo.png"
   inkscape:export-xdpi="90"
   inkscape:export-ydpi="90">
  <defs
     id="defs4031">
    <filter
       color-interpolation-filters="sRGB"
       inkscape:menu="Textures"
       inkscape:label="Watercolor"
       inkscape:menu-tooltip="Cloudy watercolor effect"
       height="2"
       y="-0.5"
       width="1.6"
       x="-0.30000001"
       id="filter11534-2-4-5-7">
      <feGaussianBlur
         stdDeviation="15"
         result="result8"
         id="feGaussianBlur11536-1-3-87-8" />
      <feTurbulence
         seed="27"
         result="result7"
         type="fractalNoise"
         numOctaves="5"
         baseFrequency="0.025"
         id="feTurbulence11538-4-5-7-0" />
      <feComposite
         in2="result8"
         result="result6"
         operator="over"
         in="result7"
         id="feComposite11540-8-9-0-2" />
      <feColorMatrix
         result="result9"
         values="1 0 0 0 0 0 1 0 0 0 0 0 1 0 0 0 0 0 6 -4 "
         id="feColorMatrix11542-2-4-1-4" />
      <feDisplacementMap
         in="result7"
         in2="result9"
         xChannelSelector="A"
         yChannelSelector="A"
         scale="45"
         result="result4"
         id="feDisplacementMap11544-0-6-6-6" />
      <feComposite
         in2="result4"
         result="result2"
         operator="in"
         in="result8"
         id="feComposite11546-8-7-64-0" />
      <feComposite
         result="fbSourceGraphic"
         in="result2"
         operator="in"
         in2="result9"
         id="feComposite11548-5-0-2-8" />
      <feComposite
         k4="0"
         k3="0"
         operator="arithmetic"
         k2="1"
         k1="0.5"
         in="fbSourceGraphic"
         in2="fbSourceGraphic"
         result="result91"
         id="feComposite11550-2-3-4-85" />
      <feBlend
         in="fbSourceGraphic"
         mode="multiply"
         in2="result91"
         id="feBlend11552-0-2-86-2" />
    </filter>
  </defs>
  <sodipodi:namedview
     id="base"
     pagecolor="#ffffff"
     bordercolor="#666666"
     borderopacity="1.0"
     inkscape:pageopacity="0.0"
     inkscape:pageshadow="2"
     inkscape:zoom="0.35"
     inkscape:cx="375"
     inkscape:cy="520"
     inkscape:document-units="px"
     inkscape:current-layer="layer1"
     showgrid="false"
     inkscape:window-width="1920"
     inkscape:window-height="1032"
     inkscape:window-x="0"
     inkscape:window-y="29"
     inkscape:window-maximized="1" />
  <metadata
     id="metadata4034">
    <rdf:RDF>
      <cc:Work
         rdf:about="">
        <dc:format>image/svg+xml</dc:format>
        <dc:type
           rdf:resource="http://purl.org/dc/dcmitype/StillImage" />
        <dc:title></dc:title>
      </cc:Work>
    </rdf:RDF>
  </metadata>
  <g
     inkscape:label="Layer 1"
     inkscape:groupmode="layer"
     id="layer1">
    <g
       id="g4191">
      <path
         inkscape:export-ydpi="90"
         inkscape:export-xdpi="90"
         inkscape:export-filename="C:\Users\zoran\gittest\ciklogen.svg.png"
         transform="matrix(1.2439794,0.10630723,-0.10152225,1.3026111,2118.5599,-12050.447)"
         d="m -487.48888,9681.2056 a 139.76656,135.17036 0 1 1 -275.30931,36.65 l 139.70853,-3.8947 z"
         sodipodi:end="9.3959613"
         sodipodi:start="6.0384222"
         sodipodi:ry="135.17036"
         sodipodi:rx="139.76656"
         sodipodi:cy="9713.9609"
         sodipodi:cx="-623.08966"
         sodipodi:type="arc"
         id="path7323"
         style="fill:#66ffff;fill-opacity:0.98757761;stroke:none;filter:url(#filter11534-2-4-5-7)" />
      <path
         style="fill:#4d4d4d;fill-opacity:1;fill-rule:nonzero;stroke:#4d4d4d;stroke-width:1.98064423;stroke-miterlimit:4;stroke-opacity:1;stroke-dasharray:none;stroke-dashoffset:30"
         d="m 365.5122,802.4374 c -0.8949,-1.4298 -3.15148,-6.3321 -5.01366,-10.8933 -1.24936,-3.406 -6.40158,-11.69981 -14.38951,-14.41176 -2.13553,-1.02587 -6.96574,-2.04925 -10.77249,-2.28194 -9.48071,-0.5829 -13.03658,1.2796 -17.84057,9.342 -5.56284,9.3329 -8.62198,13.3949 -11.16062,14.8182 -1.96082,1.0978 -2.58237,1.0299 -4.15125,-0.4574 -1.97451,-1.8703 -3.98026,-8.7278 -3.98026,-13.6092 -0.986,-14.79068 -7.52735,-16.26752 -15.99206,-20.92549 -10.32943,-5.73746 -15.55405,-4.68799 -28.00149,5.62899 -9.57679,7.93963 -11.68733,8.93425 -13.93895,6.57139 -1.34297,-1.41019 -1.54143,-3.75102 -1.29928,-15.2782 0.32314,-15.36703 -3.06912,-16.17082 -6.73111,-19.18592 -7.52612,-4.2188 -5.90605,-4.70368 -8.60948,-6.4589 -5.20838,-1.50822 -12.44746,-5.78975 -24.68771,0.1047 -4.22365,2.03361 -9.0164,6.27462 -9.81519,6.3609 -6.07335,0.65346 -6.18442,-4.77165 -2.68968,-14.88217 3.8604,-11.1691 -5.29949,-27.32946 -5.96726,-31.28556 -1.45279,-8.61405 7.75953,1.5069 0.40192,-0.57766 -4.77405,-1.35138 -20.09715,-9.23357 -30.19818,-6.84185 -6.65743,1.57487 -6.73233,1.56833 -8.46845,-0.67567 -0.9623,-1.24554 -1.74985,-2.91973 -1.74985,-3.72219 0,-2.36949 2.60107,-6.94903 6.90331,-12.15458 5.32073,-6.43666 6.89337,-10.64242 6.95203,-18.59124 0.11243,-14.95663 -7.64847,-21.79061 -27.56088,-24.28036 -11.52262,-1.44156 -16.48513,-3.3157 -17.732,-5.3859 -1.42533,-2.36426 4.66548,-7.11631 10.6302,-11.30372 6.07707,-4.2672 7.63101,-6.07598 10.08728,-11.7442 2.19169,-5.06047 2.69094,-15.18667 0.98227,-19.93084 -2.49873,-6.93986 -10.16715,-12.41336 -23.06765,-16.46225 -8.829146,-2.77072 -11.712286,-4.6658 -11.712286,-7.69791 0,-2.70929 4.091276,-6.64839 8.822886,-8.49249 9.6317,-3.75356 15.94218,-8.71863 18.63312,-14.65603 1.92956,-4.25672 2.02067,-14.79591 0.17474,-20.21448 -1.84596,-5.41991 -3.63076,-7.24569 -14.08248,-14.40382 -5.0561,-3.46339 -9.685316,-4.40568 -10.705046,-5.59762 -1.83096,-2.1434 -2.16797,-5.06309 0.0374,-7.52799 2.593556,-2.88964 6.082026,-4.16261 13.671816,-4.98728 9.76149,-1.05996 16.61989,-5.46827 20.45411,-13.14652 1.60883,-3.22293 2.07938,-5.91914 2.05563,-11.77948 -0.0373,-9.32894 -0.88613,-11.13385 -10.38805,-22.10563 -7.56234,-8.73166 -9.2635,-11.80558 -7.53486,-13.6157 0.55789,-0.58419 6.83468,-1.4089 13.94892,-1.83233 8.27002,-0.49272 14.3084,-1.36967 16.74347,-2.43222 5.12975,-2.23881 10.87981,-8.28994 12.04306,-12.67604 2.03319,-7.6652 0.35947,-18.43965 -4.135,-26.6198 -7.90555,-14.38549 -7.7221,-13.95029 -6.49645,-15.49772 1.7037,-2.1486 8.36486,-1.86367 15.06975,0.64566 3.78804,1.41671 8.32992,2.18649 13.45843,2.2793 6.79847,0.11778 8.2825,-0.18942 12.16538,-2.5799 4.96874,-3.05954 9.19485,-8.79444 10.70756,-14.52928 1.21818,-4.62135 0.56415,-9.79945 -2.57983,-20.39483 -2.98424,-10.06213 -2.98301,-12.06306 0.0133,-14.11889 2.98923,-2.05058 6.37163,-1.00895 12.92298,3.98226 7.5386,5.74269 10.73254,7.03134 17.57095,7.09801 10.58027,0.10433 19.8151,-6.25243 22.20897,-15.27686 0.55792,-2.10547 1.01723,-9.32373 1.02096,-16.04009 0.0133,-8.13963 0.39191,-12.61722 1.16573,-13.42752 2.66223,-2.78641 5.59282,-1.18669 15.13965,8.26116 10.88358,10.77052 12.93797,11.60436 24.02497,9.74979 7.69464,-1.28601 8.84788,-1.87938 12.77195,-6.55823 4.12253,-4.91671 5.51295,-8.79049 6.35043,-17.696 1.69369,-17.99787 7.57481,-17.65155 18.35354,1.07955 5.94601,10.334 10.14717,13.38701 19.15106,13.92025 11.38656,0.67306 16.83585,-5.89823 23.8228,-18.49194 4.67167,-2.26621 5.53535,-11.76377 10.60771,-12.68518 3.15899,-0.38293 5.2583,5.25524 7.65221,16.6596 2.08311,9.92621 5.614,15.14613 12.84436,18.98593 6.53884,3.47256 14.68404,3.80581 20.25565,0.8286 2.01695,-1.07692 5.94351,-7.65605 10.81865,-12.43163 4.87389,-4.77556 10.94846,-6.8915 11.40527,-6.8915 2.55988,0 6.20563,1.14227 6.68991,10.88813 0.61658,12.41857 0.56912,21.75014 6.56132,27.53334 7.8307,7.55938 17.2989,7.76063 28.75782,0.61298 6.791,-4.23711 13.79542,-12.86556 18.9202,-9.47664 4.38087,2.89618 -0.25979,11.25668 -2.21417,17.05819 -4.65296,13.80785 2.4301,31.2137 14.02258,34.46146 5.50045,1.53956 10.64767,0.79329 22.45736,-3.25954 9.18487,-3.15365 9.44448,-3.1837 11.37906,-1.35008 2.80449,2.65704 5.21461,2.74591 -1.53146,12.20424 -5.34441,7.49141 -6.16691,12.81981 -6.15571,19.12842 0.0133,9.10023 5.91233,19.0212 13.05528,21.96966 1.59759,0.6587 9.07633,1.51608 16.62116,1.90293 19.50805,1.00241 19.9012,1.69639 8.29747,14.64166 -7.49618,8.36179 -9.2535,12.29047 -9.16616,20.48763 0.075,7.19994 3.44856,12.67081 7.32893,16.69619 4.24484,4.40438 5.52042,6.651 18.38349,7.63644 18.95763,1.45072 17.60343,6.32822 2.21543,16.9406 -4.46825,3.08175 -9.0214,6.92155 -10.11723,8.53431 -4.37217,6.42886 -5.11727,18.52068 -1.58388,25.67617 2.55743,5.17943 6.09955,8.00894 16.41023,13.11257 5.32323,2.63348 10.49292,5.74138 11.4889,6.90588 3.41485,3.9901 1.66749,5.39373 -14.68281,11.80038 -3.88538,1.52125 -8.31495,3.86855 -9.8439,5.21599 -6.69115,5.89562 -9.03136,18.72457 -5.08356,27.86792 2.26406,5.24216 4.4308,7.74362 10.48539,12.10623 l 4.49199,3.23595 c 7.12672,2.90534 -4.49199,-3.23595 7.12672,2.90534 0.93361,5.78844 0.13239,10.59014 -11.95442,10.31178 -13.33488,-0.30581 -22.76189,5.49048 -26.01946,12.08658 -1.80105,3.64638 -2.8844,14.9436 -1.93711,20.18966 0.36571,2.02052 3.15899,6.65103 6.93079,11.49061 7.48871,9.60603 8.42977,12.23428 5.32574,14.86516 -1.31179,4.63572 -5.97473,3.04778 -19.69778,0.93185 -13.11144,0.66394 -16.44641,1.85064 -20.38795,7.26137 -3.50471,4.81218 -4.59184,8.53566 -4.59184,15.72643 0,5.10884 2.66474,7.35548 5.0886,12.56362 1.87091,5.90476 5.08355,13.47327 4.46698,15.68464 -1.19071,3.84239 -5.71635,5.36759 -8.16515,3.23989 -1.59261,-1.38406 -6.25682,-2.96283 -16.27043,-5.50484 -10.15591,-2.57861 -20.18703,-0.34242 -24.92736,5.5558 -4.78903,5.96099 -5.59406,13.08119 -3.07285,27.17004 1.19567,6.68368 1.2818,9.21522 0.40811,11.98727 -1.66621,5.28787 -5.01616,4.72719 -13.13141,-2.19959 -6.957,-5.93744 -12.30641,-7.79592 -22.7057,-7.88739 -7.4188,-0.0654 -9.769,0.28479 -11.94698,1.77874 -4.30597,2.9524 -7.38259,11.3325 -8.42726,22.9552 -0.99849,11.11415 -2.03068,14.96315 -4.25108,15.85575 -3.19517,1.2834 -6.32795,-0.8377 -11.32914,-7.6705 -2.82447,-3.8593 -6.70362,-7.95269 -8.61948,-9.09496 -4.86639,-2.90007 -16.0495,-5.46039 -20.57021,-4.7063 -8.72679,1.45066 -12.39001,5.80413 -17.06048,20.27076 -1.59632,4.9479 -3.57084,10.0621 -4.38588,11.3651 -1.99323,3.185 -5.61026,3.0765 -7.67963,-0.2314 l 0,0 z m 26.5437,-57.57078 c 67.97982,-13.52687 121.10208,-55.12291 150.8684,-118.13056 35.585,-75.32297 26.37518,-165.79474 -23.57816,-231.61622 -7.10677,-9.36296 -22.40489,-25.50629 -31.45747,-33.19243 -41.86803,-35.55271 -97.01974,-52.93635 -150.14451,-47.32695 -72.86497,7.69526 -136.15192,54.5256 -167.1813,123.71117 -9.1287,20.353 -15.25946,42.67949 -18.05523,65.74833 -2.35646,19.44729 -1.56891,46.95318 1.89212,66.11294 7.87935,43.61006 27.83174,83.17511 57.62924,114.27899 32.28374,33.69822 70.87172,53.75322 118.11164,61.38446 11.49388,1.85717 50.80576,1.24159 61.91527,-0.96973 z M 367.39062,297.31091 c -0.33449,-0.5659 -1.01346,-0.76719 -1.50895,-0.44567 -1.34174,0.86782 -1.09213,1.47686 0.60781,1.47686 0.83001,0 1.23566,-0.46398 0.90114,-1.03119 z"
         id="path7325"
         inkscape:connector-curvature="0"
         sodipodi:nodetypes="cccssssccsssccsssssssssssssssssssssssssssssssssssssssssscsssssssccsssssssssssssscsssssssssscssssccssssccssccssssssssssssssscccsssssssssssscss"
         inkscape:export-filename="C:\Users\zoran\gittest\ciklogen.svg.png"
         inkscape:export-xdpi="90"
         inkscape:export-ydpi="90" />
      <path
         style="fill:none;stroke:#000000;stroke-width:0.31690308px;stroke-linecap:butt;stroke-linejoin:miter;stroke-opacity:1"
         d="m 494.75079,308.02523 c 0.0874,-0.19208 0.0234,-0.17908 0.12839,-0.17908 0.0133,0 0.0373,0.0133 0.0373,0 0.0133,-0.0133 -0.0133,-0.0394 0,-0.0394 0.0133,-0.0133 0.0234,0 0.0373,0 0.0234,0 0.05,0 0.0874,0 0.0133,0 0.0234,0 0.0373,0 0.0133,0 0.0373,0.0133 0.0373,0 0.0133,-0.0133 -0.0133,-0.0393 0,-0.0393 0,0 0.11238,0 0.12839,0 0.0133,0 0.12472,0.0133 0.12839,0 0.0133,-0.0266 -0.0234,-0.0654 0,-0.0914 0.0133,-0.0133 0.23577,0 0.25578,0 0.0874,0 0.17208,0 0.25712,0 0.0234,0 0.0624,0 0.0874,0 0.0234,0 0.0624,0.0133 0.0874,0 0.0373,-0.0266 0.05,-0.0654 0.0874,-0.0914 0.0234,-0.0133 0.05,0 0.0874,0 0.0234,0 0.0624,0 0.0874,0 0.17108,0 0.34196,0 0.51297,0 0.3707,0 0.74137,0 1.11207,0 0.22843,0 0.4568,0 0.68397,0 0.0234,0 0.0624,-0.0266 0.0874,0 0.0233,0.0266 0.0133,0.0654 0,0.0914 -0.0133,0.0133 -0.0373,0.0133 -0.0373,0 0,-0.0133 0.0233,0 0.0373,0 0.0133,0 0.0373,-0.0133 0.0373,0 0.0133,0.0133 -0.0133,0.0393 0,0.0393 0.0133,0.0133 0.0373,-0.0133 0.0373,0 0.0133,0.0133 -0.0133,0.0393 0,0.0393 0,0.0133 0.19475,0 0.21476,0 0.0133,0 0.0373,-0.0133 0.0373,0 0.0133,0.0133 -0.0133,0.0394 0,0.0394 0.0133,0.0133 0.0373,0.0133 0.0373,0 0.0133,-0.0133 0.0133,-0.0394 0,-0.0394 -0.0233,-0.0266 -0.11238,0.0267 -0.12839,0 -0.0133,-0.0133 0.0133,-0.0393 0,-0.0393 -0.0133,-0.0133 -0.0234,0 -0.0373,0 -0.0234,0 -0.21209,-0.0133 -0.21343,0 -0.0133,0.0133 0,0.0267 0,0.0393"
         id="path7327"
         inkscape:connector-curvature="0"
         inkscape:export-filename="C:\Users\zoran\gittest\ciklogen.svg.png"
         inkscape:export-xdpi="90"
         inkscape:export-ydpi="90" />
      <path
         style="fill:none;stroke:#000000;stroke-width:0.31690308px;stroke-linecap:butt;stroke-linejoin:miter;stroke-opacity:1"
         d="m 498.17314,307.84618 -4.57687,0.44827"
         id="path7329"
         inkscape:connector-curvature="0"
         inkscape:export-filename="C:\Users\zoran\gittest\ciklogen.svg.png"
         inkscape:export-xdpi="90"
         inkscape:export-ydpi="90" />
      <path
         transform="matrix(3.3348359,0,0,3.3348359,1444.0553,-1454.5681)"
         style="fill:none;stroke:#4d4d4d;stroke-width:7.7183876;stroke-miterlimit:4;stroke-opacity:1;stroke-dasharray:none;stroke-dashoffset:30"
         id="path7331"
         sodipodi:type="arc"
         sodipodi:cx="-325.77203"
         sodipodi:cy="595.54742"
         sodipodi:rx="53.962582"
         sodipodi:ry="56.638607"
         sodipodi:start="6.1439953"
         sodipodi:end="12.426029"
         d="m -272.33134,587.68933 a 53.962582,56.638607 0 1 1 -0.009,-0.0646"
         sodipodi:open="true"
         inkscape:export-filename="C:\Users\zoran\gittest\ciklogen.svg.png"
         inkscape:export-xdpi="90"
         inkscape:export-ydpi="90" />
      <path
         inkscape:connector-curvature="0"
         id="path7333"
         d="m 483.12085,544.54379 c -3.43604,-0.0393 -12.51233,-8.59837 -10.74253,-2.37734 -3.05411,3.90776 -9.98867,-2.66092 -11.43399,-1.98132 2.25662,7.00652 -9.64541,1.39453 -12.81187,-0.66 -2.25785,-2.80077 2.18418,7.65214 -5.08109,3.16933 -3.06788,1.87154 -8.84288,0.0266 -13.6831,0.0654 -2.96426,0.31747 -8.23254,0.3581 -12.41249,0.26278 -1.76859,-1.18669 -3.92157,2.06106 -6.96947,0.92403 -3.7019,-1.13706 -9.15993,1.33176 -10.30694,-2.7067 -1.17447,5.6303 -8.88534,-3.23469 -9.07379,1.32003 -5.57285,-0.13072 -6.06583,-0.86258 -10.45298,1.08997 -2.75334,-2.60865 -4.43954,2.674 -7.67466,-0.35156 -3.60829,-3.24643 -5.46799,3.60585 -9.78274,-1.10174 -1.86717,-0.34765 -4.93752,3.13926 -8.1302,-0.26411 -0.18341,5.8773 -11.50888,-4.16391 -9.69163,1.15534 -2.69091,4.21097 -7.96295,-3.11706 -9.61296,1.11742 -6.31174,-0.73057 -8.09778,-5.44209 -10.71133,0.17107 -3.59582,-0.71226 -5.96599,-3.54439 -8.60201,-0.69398 -3.32123,-1.33307 -6.08581,-0.90831 -9.29098,-0.13206 -4.41209,-1.11614 -10.16465,0.0267 -14.22351,-0.79853 -4.20116,0.42343 -6.00844,0.29414 -9.9138,0.63386 -5.28574,-4.424 -7.40257,3.83326 -12.95667,0 -4.3347,-2.57859 -9.31594,1.79573 -13.93772,-0.39602 -3.3387,-2.20349 -6.31295,-4.67754 -5.62523,0.39602 -4.52067,1.44025 -14.02132,-5.59633 -13.93772,-4.16001 4.3522,2.38781 -1.09832,6.31778 -4.10131,3.56534 -1.87715,0.0654 -5.21584,2.65703 -8.65066,0.35943 -4.25859,-1.19978 -7.14172,-3.52092 -9.42328,0.36723 -3.43732,0.43783 -9.16867,-3.92737 -10.272,0 -4.71289,0.70839 -10.23081,0.46397 -14.55426,-0.26412 -2.48502,-4.08291 5.46673,-7.34895 6.69489,-12.0487 2.45878,-4.17962 3.67195,-6.98167 6.09954,-10.05953 2.39512,-2.50802 2.26533,-5.45519 5.49795,-7.21301 0.74637,-3.19678 3.03791,-4.92719 4.42456,-8.00241 3.87915,-1.7866 6.68987,-7.60903 8.06156,-11.44488 5.93855,-5.45387 10.0461,-13.34259 14.41573,-20.07332 5.64275,-7.47574 10.67765,-15.15662 16.1082,-22.9499 0.13738,-2.69102 4.69665,-7.99718 8.1664,-5.21603 -0.0997,4.67754 -2.14677,5.87342 5.55288,8.58401 5.84616,5.87602 -10.8661,2.64002 -0.63656,6.29423 2.8657,1.67419 13.80042,6.09296 6.80724,8.62973 -2.53991,0 -11.28296,-3.36405 -5.52293,-0.46265 3.63204,3.47123 16.69479,5.5584 12.83562,10.84893 -8.57202,-1.62843 -13.41225,-4.81741 -2.70091,1.29254 2.98425,2.19046 15.47787,6.45237 8.23631,9.51979 -4.98745,-1.09129 -9.59299,-3.33664 -14.30092,-5.15066 6.44527,3.53656 12.93924,6.97776 19.41819,10.466 4.4595,-5.21209 7.21912,-11.03715 11.58002,-15.48075 3.95528,-5.04871 7.3177,-10.10006 10.48666,-14.76322 6.26929,-6.78956 12.09674,-16.16031 18.40345,-23.86865 7.82693,-11.19004 16.20804,-21.46524 24.68273,-33.00684 1.4915,-3.85417 9.59428,-12.25779 10.19585,-4.07633 -2.0806,3.17192 8.89908,3.37581 5.15349,7.82465 -6.94703,1.41935 9.74029,3.47386 5.87985,8.41932 3.89162,1.36315 5.84493,9.41522 -0.0624,6.52295 3.50345,3.2582 12.75699,3.95871 11.99937,9.32633 -1.13327,1.34878 5.21462,5.57019 6.96825,8.51864 3.20764,2.10419 -0.47178,5.16636 4.13749,6.33999 3.71565,2.19042 -0.86245,5.83809 4.93629,6.63665 -2.30901,3.56401 11.1544,10.09612 1.12581,9.45964 -11.71231,-6.05766 -1.28431,-0.33978 4.35717,2.86743 7.933,2.542 4.66546,7.45088 11.17686,10.52089 -2.13676,4.36518 -6.85465,0.86126 0.60034,4.80171 5.53166,3.4856 3.54216,6.86012 10.10599,10.25555 -2.01695,5.38592 3.83923,-5.12191 5.90486,-6.82745 8.83788,-13.15439 17.38373,-25.24226 25.99821,-38.20975 0.79632,-3.53529 7.33894,-7.79201 8.67441,-2.34464 -0.11239,2.50279 -4.91882,2.89356 -0.27579,4.0881 3.90909,0.4313 9.66288,6.66801 2.60357,6.68371 -5.62153,-0.41432 7.45996,4.8017 9.72281,6.69545 3.91783,6.21714 -7.55233,2.63348 -9.00142,2.37734 5.27454,3.35361 11.95071,5.39242 16.26046,9.70664 -2.31151,6.29947 -18.16508,-5.4042 -5.78004,2.47141 3.36368,3.14582 10.1347,3.79798 11.84087,8.16058 -2.71463,4.89446 -9.67039,-1.23245 -13.86405,-1.84933 -1.70617,-0.44696 8.70686,4.71936 11.86708,6.58829 2.84195,2.46748 10.98715,3.27388 8.71182,7.93965 -6.83841,0.88219 -6.46024,-1.60622 0.35823,3.03214 10.32566,2.99157 4.61678,10.44506 -2.96427,3.91296 -12.03682,-5.90346 -3.22638,-1.04164 3.315,2.64785 3.3287,2.31722 17.92291,7.87695 9.12494,10.1275 -9.78397,-4.90494 -8.69935,-4.12863 0.13473,0.7502 3.01916,2.75502 11.49511,3.76791 9.55804,8.65194 -5.87611,0.80116 -11.13942,-4.69715 -16.65984,-6.60397 7.58855,4.81609 16.82461,8.12526 23.22867,14.16594 0.26845,6.69155 -8.2725,-1.83233 -6.60501,3.66465 -7.42628,-0.81289 -6.93079,-1.60882 -12.38131,0.25345 -2.48749,-1.14879 -17.12415,-8.67024 -10.55779,-5.04088 4.32721,0.43524 4.91881,7.00263 -0.11239,5.25001 -4.93005,-2.75504 -8.24254,2.86742 -14.40822,-3.02686 -5.85617,-2.88574 -15.56524,-7.76193 -4.76405,-1.98787 3.05911,0.92531 10.98338,6.35826 3.23886,6.69806 z m -76.76408,-7.03267 -0.0373,-0.0266 0.0373,0.0266 z m -124.6717,-32.52325 c -1.37791,-1.23506 -0.33952,0.39471 0,0 z m 145.03348,-1.91467 c -7.51993,-4.1639 -8.30871,-4.12078 0,0 z"
         style="fill:#4d4d4d;stroke:#4d4d4d;stroke-width:10.45366383;stroke-linecap:round;stroke-linejoin:round;stroke-miterlimit:4;stroke-opacity:1;stroke-dasharray:none"
         inkscape:export-filename="C:\Users\zoran\gittest\ciklogen.svg.png"
         inkscape:export-xdpi="90"
         inkscape:export-ydpi="90" />
      <path
         inkscape:export-ydpi="90"
         inkscape:export-xdpi="90"
         inkscape:export-filename="C:\Users\zoran\gittest\ciklogen.svg.png"
         transform="matrix(3.3348359,0,0,3.3348359,1444.0553,-1454.5681)"
         style="fill:#ffcc00;fill-opacity:0.97515528;stroke:none"
         id="path7335"
         sodipodi:type="arc"
         sodipodi:cx="-325.18945"
         sodipodi:cy="599.57977"
         sodipodi:rx="16.93734"
         sodipodi:ry="17.735636"
         sodipodi:start="6.1439953"
         sodipodi:end="12.426029"
         sodipodi:open="true"
         d="m -308.41592,597.11911 a 16.93734,17.735636 0 1 1 -0.003,-0.0202" />
      <path
         inkscape:connector-curvature="0"
         id="path7337"
         d="m 482.37325,545.31358 c -3.49847,0.0393 -12.742,8.59836 -10.93973,2.37734 -3.11033,-3.90777 -10.17214,2.66092 -11.64244,1.98132 2.29653,-7.00653 -9.82266,-1.39454 -13.04778,0.65999 -2.29904,2.80077 2.22414,-7.65215 -5.1747,-3.16933 -3.12404,-1.87153 -9.00515,-0.0266 -13.93394,-0.0654 -3.01919,-0.31747 -8.38361,-0.35809 -12.64093,-0.26279 -1.79978,1.18671 -3.9927,-2.06106 -7.09553,-0.92402 -3.7718,1.13705 -9.32967,-1.33176 -10.49789,2.70671 -1.19571,-5.63032 -9.04758,3.23468 -9.2398,-1.32004 -5.67519,0.13072 -6.17692,0.86259 -10.64393,-1.09 -2.80326,2.60869 -4.5219,-2.67399 -7.81569,0.3516 -3.67445,3.24643 -5.56911,-3.60586 -9.96245,1.10173 -1.90212,0.34766 -5.0274,-3.13925 -8.28,0.26412 -0.18709,-5.87731 -11.71982,4.16391 -9.86884,-1.15535 -2.73961,-4.21097 -8.10903,3.11706 -9.78899,-1.11745 -6.42779,0.7306 -8.24754,5.44212 -10.90852,-0.17107 -3.6607,0.71229 -6.07583,3.54442 -8.75927,0.69402 -3.38238,1.33306 -6.19689,0.9083 -9.46197,0.13205 -4.49321,1.11613 -10.35062,-0.0266 -14.48436,0.79852 -4.27729,-0.42342 -6.11827,-0.29413 -10.09477,-0.63384 -5.38309,4.42399 -7.5386,-3.83327 -13.19509,0 -4.41331,2.57859 -9.48691,-1.79575 -14.19356,0.39601 -3.39986,2.20349 -6.42903,4.67754 -5.72884,-0.39601 -4.60304,-1.44026 -14.27844,5.59632 -14.1923,4.16001 4.43079,-2.38781 -1.11957,-6.31779 -4.17621,-3.56535 -1.9121,-0.0654 -5.31196,-2.65702 -8.81044,-0.35942 -4.33719,1.19976 -7.27277,3.52092 -9.59676,-0.36724 -3.49971,-0.43782 -9.3359,3.92734 -10.4592,0 -4.80025,-0.70838 -10.41927,-0.46397 -14.82138,0.26413 -2.53118,4.08289 5.56538,7.34894 6.8172,12.04869 2.50373,4.17962 3.73939,6.98168 6.21063,10.05953 2.44007,2.50803 2.30778,5.4552 5.60028,7.21302 0.75889,3.19678 3.09284,4.92718 4.50571,8.0024 3.95028,1.78661 6.81223,7.60902 8.20886,11.44489 6.04712,5.45386 10.23081,13.34257 14.68031,20.07331 5.74632,7.47571 10.8736,15.15663 16.40276,22.94991 0.14107,2.69098 4.78276,7.99717 8.31619,5.21601 -0.0997,-4.67754 -2.18546,-5.87341 5.6552,-8.584 5.95353,-5.87601 -11.06454,-2.64002 -0.64779,-6.29423 2.91813,-1.67419 14.05381,-6.09298 6.93206,-8.62972 -2.58737,0 -11.48891,3.36405 -5.62404,0.46265 3.69817,-3.47124 17.0006,-5.55845 13.07153,-10.84893 -8.73057,1.62843 -13.65812,4.81736 -2.75084,-1.29258 3.03918,-2.19042 15.7612,-6.45237 8.38735,-9.51976 -5.07985,1.0913 -9.76901,3.33664 -14.56303,5.15065 6.56259,-3.53656 13.17637,-6.97774 19.77391,-10.46598 4.54061,5.21209 7.35138,11.03714 11.79342,15.48075 4.02645,5.04869 7.45126,10.10002 10.67887,14.76318 6.38411,6.78959 12.31892,16.16035 18.74045,23.86868 7.97049,11.19004 16.50633,21.46521 25.13579,33.00684 1.51898,3.85417 9.77027,12.25779 10.38184,4.07634 -2.11805,-3.17197 9.06255,-3.37582 5.24833,-7.82466 -7.07432,-1.41934 9.91877,-3.47387 5.98843,-8.41933 3.96279,-1.36315 5.95229,-9.4152 -0.0624,-6.52293 3.56838,-3.25821 12.99162,-3.95873 12.21904,-9.32634 -1.15325,-1.34878 5.31199,-5.57018 7.09679,-8.51863 3.26631,-2.10419 -0.48051,-5.16637 4.21364,-6.34 3.78304,-2.19042 -0.87866,-5.83809 5.02616,-6.63665 -2.35019,-3.56401 11.35909,-10.09612 1.14702,-9.45963 -11.927,6.05766 -1.30929,0.33978 4.43703,-2.86743 8.07781,-2.54201 4.75158,-7.45089 11.38156,-10.5209 -2.17544,-4.36517 -6.98068,-0.86126 0.61158,-4.8017 5.63277,-3.4856 3.60706,-6.86013 10.29197,-10.25555 -2.0544,-5.38593 3.90909,5.12191 6.01341,6.82744 8.99892,13.15439 17.70204,25.24227 26.47503,38.20974 0.81003,3.5353 7.47246,7.79201 8.83418,2.34466 -0.11239,-2.5028 -5.00996,-2.89356 -0.28213,-4.0881 3.98026,-0.4313 9.84013,-6.66801 2.65099,-6.68373 -5.72384,0.41434 7.59729,-4.80169 9.90129,-6.69544 3.99024,-6.21714 -7.69085,-2.63348 -9.16615,-2.37733 5.37065,-3.35361 12.16914,-5.39243 16.55875,-9.70664 -2.35396,-6.29947 -18.49956,5.4042 -5.88612,-2.47145 3.42608,-3.14578 10.32069,-3.79795 12.05804,-8.16054 -2.76455,-4.89448 -9.84761,1.23245 -14.11867,1.84933 -1.73738,0.44696 8.8666,-4.71936 12.08425,-6.58831 2.89563,-2.4675 11.18934,-3.27387 8.87286,-7.93967 -6.96324,-0.88217 -6.57883,1.60626 0.3657,-3.0321 10.51287,-2.99158 4.70039,-10.44508 -3.02046,-3.91297 -12.25649,5.90347 -3.28501,1.04164 3.37616,-2.64785 3.38989,-2.31722 18.25118,-7.87696 9.29348,-10.12749 -9.96372,4.90493 -8.86039,4.12862 0.13606,-0.75021 3.07412,-2.75502 11.70608,-3.7679 9.73405,-8.65193 -5.98469,-0.80117 -11.34411,4.69714 -16.96564,6.60397 7.72708,-4.8161 17.13289,-8.12526 23.65556,-14.16595 0.27212,-6.69154 -8.4248,1.83232 -6.72736,-3.66468 -7.56231,0.81293 -7.05685,1.60885 -12.60722,-0.25345 -2.53491,1.14882 -17.43989,8.67027 -10.75251,5.04091 4.40712,-0.43523 5.00869,-7.00263 -0.11239,-5.25001 -5.02116,2.75504 -8.39358,-2.86743 -14.67284,3.02686 -5.96349,2.88574 -15.85107,7.76193 -4.85142,1.98787 3.11531,-0.92531 11.18434,-6.35826 3.29752,-6.69809 z m -78.17195,7.03267 -0.0373,0.0266 0.0373,-0.0266 z m -126.95954,32.52321 c -1.40289,1.23509 -0.34572,-0.39468 0,0 z m 147.69445,1.9147 c -7.65719,4.16391 -8.46094,4.12078 0,0 z"
         style="fill:#1a1a1a;fill-opacity:0.34161491;stroke:none"
         inkscape:export-filename="C:\Users\zoran\gittest\ciklogen.svg.png"
         inkscape:export-xdpi="90"
         inkscape:export-ydpi="90" />
      <g
         inkscape:export-ydpi="90"
         inkscape:export-xdpi="90"
         inkscape:export-filename="C:\Users\zoran\gittest\ciklogen.svg.png"
         transform="matrix(1.3369117,0,-0.28126362,1.0235565,24466.419,-14915.298)"
         style="font-size:107.69494629px;font-style:normal;font-variant:normal;font-weight:normal;font-stretch:normal;line-height:125%;letter-spacing:-10.19999981px;word-spacing:0px;fill:#ffffff;fill-opacity:1;stroke:#4d4d4d;stroke-width:2.69237375px;stroke-linecap:butt;stroke-linejoin:miter;stroke-opacity:1;font-family:Oswald;-inkscape-font-specification:Oswald"
         id="g7339">
        <path
           d="m -14975.122,15108.811 c 0,-8.519 -1.368,-24.137 6.731,-24.137 6.205,0 6.731,7.73 6.731,14.041 l 13.461,0 c 0,-15.303 -4.785,-24.505 -20.192,-24.505 -18.248,0 -20.193,16.407 -20.193,34.601 0,18.195 1.945,34.601 20.193,34.601 14.986,0 20.192,-9.728 20.192,-24.504 l -13.461,0 c 0,6.73 0,13.461 -6.731,13.461 -8.256,0 -6.731,-15.092 -6.731,-23.558 z"
           style="font-style:normal;font-variant:normal;font-weight:normal;font-stretch:normal;letter-spacing:-10.19999981px;fill:#ffffff;stroke:#4d4d4d;stroke-width:2.69237375px;font-family:Oswald;-inkscape-font-specification:Oswald"
           id="path7341"
           inkscape:connector-curvature="0" />
        <path
           d="m -14949.617,15075.156 0,67.31 13.462,0 0,-67.31 -13.462,0 z m 0,-23.558 0,13.462 13.462,0 0,-13.462 -13.462,0 z"
           style="font-style:normal;font-variant:normal;font-weight:normal;font-stretch:normal;letter-spacing:-10.19999981px;fill:#ffffff;stroke:#4d4d4d;stroke-width:2.69237375px;font-family:Oswald;-inkscape-font-specification:Oswald"
           id="path7343"
           inkscape:connector-curvature="0" />
        <path
           d="m -14921.737,15048.233 -13.461,0 0,94.233 13.461,0 0,-23.558 6.731,-8.993 10.097,32.551 13.462,0 -15.092,-43.804 15.092,-23.506 -13.462,0 -16.828,24.873 0,-51.796 z"
           style="font-style:normal;font-variant:normal;font-weight:normal;font-stretch:normal;letter-spacing:-10.19999981px;fill:#ffffff;stroke:#4d4d4d;stroke-width:2.69237375px;font-family:Oswald;-inkscape-font-specification:Oswald"
           id="path7345"
           inkscape:connector-curvature="0" />
        <path
           d="m -14880.306,15142.466 0,-94.233 -13.462,0 0,94.233 13.462,0 z"
           style="font-style:normal;font-variant:normal;font-weight:normal;font-stretch:normal;letter-spacing:-10.19999981px;fill:#ffffff;stroke:#4d4d4d;stroke-width:2.69237375px;font-family:Oswald;-inkscape-font-specification:Oswald"
           id="path7347"
           inkscape:connector-curvature="0" />
        <path
           d="m -14859.218,15143.412 c 15.145,0 20.193,-9.57 20.193,-24.504 l 0,-20.193 c 0,-14.935 -5.048,-24.505 -20.193,-24.505 -15.144,0 -20.193,9.57 -20.193,24.505 l 0,20.193 c 0,14.934 5.049,24.504 20.193,24.504 z m 0,-58.159 c 6.731,0 6.731,6.731 6.731,13.462 l 0,20.193 c 0,6.73 0,13.461 -6.731,13.461 -6.731,0 -6.731,-6.731 -6.731,-13.461 l 0,-20.193 c 0,-6.731 0,-13.462 6.731,-13.462 z"
           style="font-style:normal;font-variant:normal;font-weight:normal;font-stretch:normal;letter-spacing:-10.19999981px;fill:#ffffff;stroke:#4d4d4d;stroke-width:2.69237375px;font-family:Oswald;-inkscape-font-specification:Oswald"
           id="path7349"
           inkscape:connector-curvature="0" />
        <path
           d="m -14840.969,15098.715 c 0,8.413 2.577,15.25 6.731,20.193 -2.366,2.997 -6.731,7.94 -6.731,12.988 0,3.155 3.628,5.048 6.731,5.89 -5.259,2.629 -10.096,7.362 -10.096,14.934 0,9.781 16.879,9.886 26.923,9.886 12.358,0 23.559,-4.207 23.559,-16.775 0,-10.254 -8.73,-12.988 -17.774,-14.198 -4.786,-0.631 -17.774,-0.105 -17.774,-4.995 0,-1.631 1.209,-3.156 1.84,-4.312 l 2.524,0.42 c 1.315,0.211 2.787,0.368 4.26,0.368 13.725,0 20.193,-10.622 20.193,-24.399 0,-3.944 -0.789,-7.467 -1.683,-10.097 l -2.406,-6.92 c -3.102,-4.785 -8.374,-7.488 -16.104,-7.488 -13.357,0 -20.193,10.727 -20.193,24.505 z m 23.558,53.952 c -4.154,0 -15.039,0.894 -15.039,-3.102 0,-4.26 2.419,-8.256 4.943,-10.097 l 11.095,1.315 c 6.574,0.789 10.097,2.524 10.57,5.153 0.158,0.579 0.21,1.157 0.21,1.736 0,4.68 -6.993,4.995 -11.779,4.995 z m 5.048,-53.952 c 0,6.888 -1.525,14.303 -8.413,14.303 -6.836,0 -8.414,-7.415 -8.414,-14.303 0,-6.942 1.473,-15.145 8.414,-15.145 6.836,0 8.413,8.203 8.413,15.145 z"
           style="font-style:normal;font-variant:normal;font-weight:normal;font-stretch:normal;letter-spacing:-10.19999981px;fill:#ffffff;stroke:#4d4d4d;stroke-width:2.69237375px;font-family:Oswald;-inkscape-font-specification:Oswald"
           id="path7351"
           inkscape:connector-curvature="0"
           sodipodi:nodetypes="scscssscsccssccsssscccsssssss" />
        <path
           d="m -14786.857,15112.177 0,-3.366 26.924,0 0,-1.577 c 0,-18.248 -2.63,-33.024 -20.193,-33.024 -17.564,0 -20.193,14.776 -20.193,33.024 0,19.088 1.788,36.178 20.14,36.178 14.672,0 20.246,-8.992 20.246,-24.504 l -13.41,0 c 0,6.783 0,13.461 -6.783,13.461 -7.572,0 -6.731,-12.41 -6.731,-20.192 z m 13.462,-10.097 -13.462,0 c 0,-6.941 -0.21,-16.827 6.731,-16.827 6.889,0 6.731,9.833 6.731,16.827 z"
           style="font-style:normal;font-variant:normal;font-weight:normal;font-stretch:normal;letter-spacing:-10.19999981px;fill:#ffffff;stroke:#4d4d4d;stroke-width:2.69237375px;font-family:Oswald;-inkscape-font-specification:Oswald"
           id="path7353"
           inkscape:connector-curvature="0" />
        <path
           d="m -14747.837,15082.413 0,-7.257 -13.462,0 0,67.31 13.462,0 0,-53.269 c 2.208,-1.841 4.627,-3.944 8.414,-3.944 4.364,0 5.048,2.471 5.048,6.731 l 0,50.482 13.462,0 0,-57.371 c 0,-5.889 -3.734,-10.885 -9.676,-10.885 -8.046,0 -12.515,3.891 -17.248,8.203 z"
           style="font-style:normal;font-variant:normal;font-weight:normal;font-stretch:normal;letter-spacing:-10.19999981px;fill:#ffffff;stroke:#4d4d4d;stroke-width:2.69237375px;font-family:Oswald;-inkscape-font-specification:Oswald"
           id="path7355"
           inkscape:connector-curvature="0" />
      </g>
    </g>
  </g>
</svg>
